<svg width="44" height="40" viewBox="0 0 44 40" fill="none" xmlns="http://www.w3.org/2000/svg">
<g id="Group">
<g id="Group_2">
<g id="Group_3">
<path id="Vector" d="M20.3576 8.03125H20.6847L20.8157 7.73155C22.6288 3.58474 26.7745 0.84375 31.3442 0.84375C37.6791 0.84375 42.8337 5.99839 42.8337 12.3332C42.8337 13.2271 42.5452 14.4854 41.9159 16.1573C41.2901 17.8199 40.3422 19.8531 39.0581 22.2837L39.0002 22.3933V22.5172V38.6876C39.0002 38.9464 38.7904 39.1562 38.5317 39.1562H1.63558C1.3768 39.1562 1.16699 38.9464 1.16699 38.6876V8.49983C1.16699 8.24106 1.3768 8.03125 1.63558 8.03125H20.3576ZM2.60416 26.2187H2.10416V26.7187V33.8857V34.3857H2.60416H6.41708H6.91708V33.8857V26.7187V26.2187H6.41708H2.60416ZM2.10416 37.7191V38.2191H2.60416H37.5631H37.5632H38.0632V37.7191V26.04V24.1539L37.1288 25.7923C34.4355 30.5152 31.7662 34.5864 31.736 34.6323L31.7359 34.6325C31.6492 34.7644 31.502 34.8437 31.3442 34.8437H18.4066C17.0918 34.8437 16.0213 33.7733 16.0213 32.4585V19.5209C16.0213 18.722 15.3721 18.0727 14.5732 18.0727H9.32316V17.1356H14.5732C15.888 17.1356 16.9585 18.2061 16.9585 19.5209V32.4584C16.9585 33.2573 17.6077 33.9065 18.4066 33.9065H29.57H30.4796L29.9921 33.1385C28.9416 31.4837 27.1757 28.643 25.4261 25.5621C23.5612 22.2781 22.1626 19.5173 21.2316 17.2917C20.2939 15.0499 19.8546 13.4054 19.8546 12.3332C19.8546 11.4063 19.966 10.4872 20.1868 9.58755L20.3387 8.96842H19.7012H2.60416H2.10416V9.46842V11.3647V11.8647H2.60416H15.9898V12.8018H10.75H10.25V13.3018V14.7082H9.31283V13.3018V12.8018H8.81283H2.60416H2.10416V13.3018V24.7815V25.2815H2.60416H7.38566C7.64443 25.2815 7.85424 25.4913 7.85424 25.7501V33.8857V34.3857H8.35424H12.1564V35.3229H2.60416H2.10416V35.8229V37.719V37.7191ZM30.9205 32.8588L31.3427 33.5192L31.7636 32.858C33.0865 30.7799 35.7964 26.4258 38.07 22.1469C39.6336 19.2108 40.5868 17.0793 41.1502 15.5289C41.7112 13.9849 41.8964 12.9888 41.8963 12.3332C41.8963 6.51436 37.1631 1.781 31.3441 1.781C26.9303 1.781 22.9488 4.56015 21.4343 8.69936L21.4339 8.7005C21.0084 9.87224 20.7917 11.0956 20.7917 12.3333C20.7917 13.38 21.2431 14.8624 21.9188 16.5211C22.6032 18.2009 23.548 20.1313 24.5947 22.1019C26.6888 26.0443 29.2089 30.1811 30.9205 32.8588Z" fill="white" stroke="white"/>
<path id="Vector_2" d="M26.5635 11.8541C26.5635 9.21822 28.7087 7.073 31.3446 7.073C33.9804 7.073 36.1256 9.21822 36.1256 11.8541C36.1256 14.4899 33.9804 16.6352 31.3446 16.6352C28.7087 16.6352 26.5635 14.4899 26.5635 11.8541ZM27.5006 11.8541C27.5006 13.9741 29.2246 15.698 31.3445 15.698C33.4645 15.698 35.1884 13.9741 35.1884 11.8541C35.1884 9.7341 33.4645 8.01016 31.3445 8.01016C29.2245 8.01016 27.5006 9.7341 27.5006 11.8541Z" fill="white" stroke="white"/>
<path id="Vector_3" d="M5.96875 18.0722V17.135H6.88542V18.0722H5.96875Z" fill="white" stroke="white"/>
</g>
</g>
</g>
</svg>
