<svg width="75" height="78" viewBox="0 0 75 78" fill="none" xmlns="http://www.w3.org/2000/svg">
<g id="logo">
<path id="Vector 1" d="M32.4969 49.3427L27.3842 35.0977C27.2286 34.6641 27.4281 34.1832 27.8451 33.9871C28.3313 33.7584 28.908 34.0075 29.0748 34.5183L32.7033 45.6253C32.8334 46.0237 33.2407 46.2621 33.6519 46.1805C34.173 46.077 34.4675 45.5192 34.2622 45.0291C33.2313 42.5694 30.5697 35.8533 30.1509 31.1412C29.6296 25.2753 36.0594 31.5725 39.2744 24.8439C41.5495 20.0823 46.2256 23.2049 46.2256 28.8121V47.6175C45.4146 48.1926 42.9237 49.3566 39.9695 49.6878C34.5823 50.2916 34.3216 50.0328 32.4969 49.3427Z" fill="#F7CC24"/>
<path id="image 1 (Traced)" fill-rule="evenodd" clip-rule="evenodd" d="M36.7495 0.290049C36.3682 0.709979 36.3117 1.04019 36.0175 4.56009C35.8109 7.03446 35.4126 15.4032 35.4068 17.3937L35.4056 17.8055L31.539 17.6864C29.4123 17.6209 26.4994 17.4975 25.0657 17.4123C18.6082 17.0281 18.4744 17.0251 18.1675 17.2672C17.6439 17.6802 17.5954 18.38 18.0584 18.8398C18.4421 19.2205 18.6827 19.2626 21.5941 19.4566C23.3123 19.5709 27.1033 19.75 30.0184 19.8546C32.9336 19.959 35.3517 20.0742 35.3922 20.1103C35.4327 20.1465 35.5266 21.8642 35.6009 23.9274C35.83 30.2895 36.2203 34.7721 36.9778 39.7376C37.1644 40.9613 37.3172 42.0288 37.3172 42.1098C37.3172 42.1909 37.4736 42.4124 37.6648 42.6022C38.1138 43.048 38.9122 43.0449 39.3214 42.596C39.633 42.2542 39.6288 42.1504 39.1693 38.7573C38.3674 32.8331 37.9946 28.3472 37.7805 22.0453L37.7122 20.0349L38.2315 19.9319C38.5172 19.8751 39.4323 19.8287 40.2652 19.8287C41.9392 19.8287 46.6089 19.4183 48.0718 19.1426C49.7043 18.8348 49.6287 18.7621 49.3678 20.3894C48.6498 24.8658 48.2661 32.3457 48.2657 41.8645L48.2654 48.9769L47.7875 49.2217C47.0008 49.6251 43.4235 50.678 41.7486 50.9993C39.6309 51.4056 34.5113 51.4073 32.5561 51.0022C31.8014 50.8459 31.1525 50.6867 31.1139 50.6485C30.8847 50.4208 28.6301 43.9107 27.8495 41.222C26.3969 36.2196 25.455 31.7387 25.7674 31.3167C25.8593 31.1925 26.3082 30.6335 26.7647 30.0749C29.0084 27.3288 29.2595 24.547 27.4437 22.5515C26.6968 21.7308 26.0528 21.3814 25.2867 21.3814C23.5536 21.3814 22.7407 23.6279 22.9628 27.8034C23.0274 29.0189 23.1232 30.1244 23.1757 30.26C23.2815 30.5342 20.9756 32.3098 19.0974 33.4003C17.8436 34.1282 17.5182 34.6073 17.8244 35.2748C18.0825 35.8369 18.6638 36.0486 19.3228 35.8205C19.606 35.7226 20.6784 35.0847 21.7062 34.4031L23.5745 33.1636L23.7688 34.1305C24.7555 39.0404 26.2537 44.23 28.078 49.057C28.9363 51.3279 29.3598 52.2296 29.6756 52.4576C29.9119 52.6284 30.9264 52.9406 31.93 53.1512C33.4572 53.4719 34.3072 53.5346 37.1434 53.5349C40.1496 53.5353 40.7794 53.4835 42.7226 53.0762C44.9682 52.6053 47.5854 51.7867 49.3451 51.0045C50.0572 50.6879 50.3622 50.45 50.4237 50.1625C50.471 49.9424 50.5464 45.3368 50.5914 39.9281C50.6757 29.8082 50.8017 27.0878 51.4063 22.3303C51.9465 18.0789 51.7434 18.5015 53.6041 17.7598C55.5542 16.9824 56.6447 16.139 57.0449 15.0985C57.2887 14.4648 57.3035 14.2314 57.1321 13.7163C56.6424 12.2427 54.6697 11.6565 52.9032 12.4592C51.7496 12.9835 51.054 13.8494 50.5295 15.4141L50.1669 16.4963L48.5644 16.7764C47.683 16.9303 46.2921 17.1369 45.4734 17.2356C43.2918 17.4987 37.9484 17.7475 37.7847 17.5938C37.6015 17.4218 37.928 9.04613 38.301 4.34684C38.5809 0.820225 38.5801 0.669954 38.2753 0.335597C37.8853 -0.0920967 37.1172 -0.115044 36.7495 0.290049ZM54.8687 14.4372C54.8683 14.6032 53.4195 15.5155 53.1564 15.5155C52.8083 15.5155 52.9407 15.215 53.4921 14.7545C53.9865 14.3415 54.8694 14.1381 54.8687 14.4372ZM26.0234 24.3575C26.4961 25.1272 26.4745 26.305 25.9704 27.2515C25.2459 28.6117 25.0912 28.3976 25.1903 26.1706C25.2702 24.3737 25.3696 23.7968 25.5999 23.7968C25.6433 23.7968 25.834 24.049 26.0234 24.3575ZM41.5748 33.826C41.0467 34.1189 40.7928 34.5099 40.7928 35.0299C40.7928 35.735 40.957 36.0324 41.5004 36.3114C42.1822 36.6614 42.4236 36.6309 43.0386 36.1171C43.4329 35.7878 43.5733 35.5238 43.5733 35.112C43.5733 34.1627 42.3669 33.3864 41.5748 33.826ZM31.7689 35.6382C30.9907 36.6202 31.6798 37.944 32.9692 37.944C33.9839 37.944 34.5885 36.2702 33.8416 35.5286C33.3102 35.001 32.2284 35.0582 31.7689 35.6382ZM40.5127 42.9438C39.8268 43.219 39.4026 43.9609 39.4026 44.8856C39.4026 45.6297 39.4801 45.8192 39.9934 46.3288C40.4755 46.8074 40.717 46.9154 41.3055 46.9154C42.6698 46.9154 43.5747 46.075 43.5721 44.8106C43.5709 44.1538 43.0787 43.3282 42.4976 43.0082C42.0416 42.757 41.058 42.7251 40.5127 42.9438ZM42.104 44.5785C42.3386 44.8114 42.5306 45.1643 42.5306 45.3627C42.5306 45.814 41.7884 46.5703 41.3454 46.5703C41.1628 46.5703 40.8074 46.4094 40.5556 46.2127C39.9795 45.7629 39.9448 45 40.4781 44.5068C40.9864 44.0364 41.5847 44.0628 42.104 44.5785ZM6.07534 56.1361C5.53975 56.812 4.2576 60.681 2.99178 65.441C2.66681 66.663 2.37834 67.678 2.35071 67.6966C0.874269 68.691 0.1967 69.5487 0.0335205 70.6294C-0.214811 72.273 0.919452 73.131 3.34316 73.1331C6.02303 73.1355 8.46517 72.219 10.2932 70.525C12.7323 68.2645 12.8719 65.8756 10.6491 64.4327C10.2627 64.182 9.61455 63.8874 9.20825 63.7778C8.56161 63.6037 8.19181 63.3054 8.62226 63.3054C8.96235 63.3054 11.2015 61.0386 11.7388 60.1503C12.753 58.4738 12.6802 56.5288 11.5819 55.9649C10.4831 55.4008 9.14308 55.8996 7.78047 57.3797C6.88567 58.3517 6.63335 58.3163 7.25392 57.306C7.44473 56.9953 7.60078 56.6033 7.60078 56.4347C7.60078 55.6587 6.60745 55.4644 6.07534 56.1361ZM48.9612 56.3599C48.2077 56.4501 47.9178 56.678 47.9178 57.1807C47.9178 57.7554 48.3182 57.9871 49.255 57.955C49.7143 57.9393 50.1391 57.9333 50.1988 57.9418C50.2586 57.9502 49.982 59.0247 49.5838 60.3294L48.86 62.7016L47.8511 62.7913C46.8635 62.879 46.3538 63.203 46.3538 63.743C46.3538 64.1986 47.0204 64.5568 47.6502 64.4395C48.0935 64.357 48.2654 64.3865 48.2654 64.5452C48.2654 64.941 46.327 71.6687 46.1645 71.8369C45.94 72.0693 45.9683 72.6878 46.2148 72.9324C46.5456 73.2609 47.1789 73.1736 47.4714 72.759C47.8033 72.2886 48.0103 71.6495 49.1501 67.5755L50.0551 64.3406H50.8225C51.7877 64.3406 52.2623 64.0941 52.2623 63.5927C52.2623 63.0299 51.9384 62.7879 51.1849 62.7879C50.8217 62.7879 50.5248 62.7685 50.5252 62.7447C50.5255 62.7209 50.8618 61.6147 51.2724 60.2862L52.019 57.8708L54.6624 57.8474C57.4024 57.8231 57.8233 57.7213 57.8233 57.0831C57.8233 56.9104 57.6495 56.6482 57.437 56.5005C57.1132 56.2753 56.4461 56.2363 53.3097 56.2594C51.2521 56.2746 49.2954 56.3198 48.9612 56.3599ZM10.8703 57.7482C10.9537 58.3094 10.3203 59.5687 9.52192 60.4284C8.82037 61.184 6.25746 63.0644 6.11791 62.9259C5.98706 62.7961 7.64735 60.0393 8.45769 59.0406C9.28575 58.0201 10.3041 57.2134 10.6301 57.3198C10.7321 57.3531 10.8402 57.5458 10.8703 57.7482ZM27.4567 57.7894C26.0201 58.3629 23.4346 62.2289 22.2885 65.5176C21.8056 66.903 21.4684 67.1219 19.6385 67.2384L18.3752 67.3189V66.5431C18.3752 64.8732 17.162 64.3753 15.5469 65.3821C15.0904 65.6666 14.5647 66.1478 14.3787 66.4515C13.6617 67.6221 13.7757 69.5437 14.5958 70.114C15.3943 70.6692 16.6579 70.2786 17.324 69.2706C17.6152 68.8296 17.6854 68.8135 19.4774 68.7775L21.3296 68.74V69.366C21.3294 69.7119 21.446 70.0878 21.5901 70.2065C21.7335 70.3247 21.8508 70.6342 21.8508 70.8945C21.8508 71.5622 22.464 72.277 23.0365 72.2761C24.0041 72.2747 24.7717 71.5394 25.8623 69.5682C26.0555 69.219 26.3664 69.0052 26.905 68.8511C27.3271 68.7305 27.8093 68.5927 27.9765 68.5449C28.1988 68.4814 28.2806 68.5575 28.2806 68.828C28.2806 69.0314 28.5184 69.4339 28.8089 69.7224C29.2524 70.1625 29.4264 70.2291 29.8924 70.1366C30.2019 70.0752 30.7667 69.7153 31.1696 69.3228L31.8916 68.6193L32.0972 69.2378C32.6792 70.9886 34.6942 71.1344 36.8273 69.5797C37.6406 68.9869 38.7074 67.7616 38.7074 67.4202C38.7074 67.2126 38.0485 66.5834 37.8309 66.5834C37.7313 66.5834 37.2152 67.0182 36.6841 67.5496C35.68 68.5544 34.4239 69.2498 33.9434 69.067C33.4857 68.8925 33.4171 68.1322 33.7246 66.6469C34.0938 64.8658 34.0899 64.7374 33.6612 64.5097C33.1718 64.2497 32.7555 64.4201 32.3933 65.0288C32.0968 65.5269 32.0715 65.5352 31.6614 65.2684C30.9016 64.7742 29.7845 65.2067 29.0856 66.2657C28.863 66.6029 28.5045 66.7882 27.6727 66.9956C26.2822 67.3424 26.369 67.3519 26.369 66.8534C26.369 66.3 26.1202 65.671 25.7596 65.313C25.4875 65.0426 25.5632 64.9315 26.9307 63.5951C28.6059 61.958 29.4971 60.448 29.4971 59.2467C29.4971 57.9335 28.6362 57.3186 27.4567 57.7894ZM27.81 59.8118C27.5045 60.6339 25.6213 62.9657 25.4225 62.7682C25.2278 62.575 27.4557 59.5098 27.7906 59.5098C27.863 59.5098 27.8717 59.6458 27.81 59.8118ZM56.2695 64.8749C55.8526 65.328 55.7238 65.3804 55.4218 65.22C54.0835 64.5088 52.3615 66.0769 52.14 68.2086C52.022 69.3444 52.3282 69.9451 53.1126 70.1163C53.7424 70.2536 54.4823 69.9037 55.0977 69.1776C55.3419 68.8894 55.5796 68.6538 55.626 68.6538C55.6724 68.6538 55.7595 68.8758 55.8194 69.147C55.9607 69.7859 56.717 70.4837 57.4293 70.6326C58.2004 70.794 59.6806 70.3387 60.43 69.7096L61.0382 69.1989L61.6127 69.7459C62.1561 70.2633 62.2592 70.2928 63.5243 70.2928C64.7124 70.2928 64.9954 70.2248 66.0657 69.6822L67.27 69.0716L67.8339 69.6822C68.3882 70.2822 68.4216 70.2928 69.7578 70.29C71.0003 70.2876 71.2262 70.2298 72.3821 69.6192C73.0775 69.2519 73.9697 68.6665 74.3645 68.3187C74.975 67.7808 75.0649 67.6172 74.9653 67.2237C74.7568 66.3985 74.1786 66.4518 72.8973 67.4145C71.7344 68.2884 70.2939 68.8953 69.6196 68.7958C69.3055 68.7492 69.3917 68.6448 70.1398 68.1652C71.5401 67.2672 71.9144 66.2375 71.1253 65.4543C70.3101 64.6448 68.5099 65.1397 67.6664 66.4051C66.6218 67.9721 63.4868 69.3766 62.7239 68.6193C62.353 68.2511 62.4851 67.3826 63.0066 66.7627C63.5523 66.1137 64.0145 66.1244 64.1093 66.7886C64.1527 67.0924 64.2938 67.1997 64.7024 67.2392C65.4116 67.3079 65.7159 66.9349 65.572 66.1733C65.3938 65.231 64.7128 64.6857 63.7141 64.6857C63.0203 64.6857 62.7668 64.78 62.2505 65.23C61.9069 65.5295 61.4787 66.061 61.2987 66.4113C60.8712 67.243 59.1671 68.7818 58.463 68.9717C57.6034 69.2034 57.3019 68.9543 57.3019 68.0118C57.3019 67.5705 57.4271 66.7144 57.5798 66.1093C57.8405 65.0775 57.8387 64.9886 57.5529 64.6749C57.1292 64.2102 56.8393 64.2554 56.2695 64.8749ZM8.76771 65.3064C9.64513 65.5973 10.4822 66.2565 10.6532 66.791C10.9509 67.7226 9.11093 69.805 7.19083 70.7096C6.05674 71.2437 4.31303 71.655 3.59097 71.5586L3.15513 71.5005L3.47698 70.088L3.79882 68.6755L5.04812 68.2632C6.20046 67.8829 6.30143 67.8105 6.34974 67.3319C6.42603 66.575 6.04249 66.3238 5.15274 66.5479L4.44232 66.727L4.55615 66.267C4.8269 65.173 5.05716 65.0307 6.55602 65.0307C7.35766 65.0307 8.28478 65.1463 8.76771 65.3064ZM24.7346 67.3329C24.6498 67.7818 24.4611 68.0292 23.9959 68.3018C23.6522 68.5032 23.3359 68.6331 23.2931 68.5906C23.1996 68.4976 23.6756 67.5482 24.1546 66.8721C24.5918 66.2551 24.8931 66.4946 24.7346 67.3329ZM30.8873 67.0051C30.8873 67.3714 30.0309 68.3025 30.024 67.9438C30.019 67.689 30.6388 66.756 30.8131 66.756C30.854 66.756 30.8873 66.8681 30.8873 67.0051ZM54.6952 66.9354C54.6952 67.1768 53.9721 68.1362 53.7902 68.1362C53.7106 68.1362 53.8051 67.8256 54.0001 67.4461C54.3329 66.7986 54.6952 66.5324 54.6952 66.9354ZM15.9532 68.3744C15.5142 68.8102 15.3533 68.662 15.5078 67.964C15.6237 67.44 15.6386 67.4321 15.9648 67.7252C16.2985 68.0249 16.2983 68.0318 15.9532 68.3744ZM12.988 76.2449C12.988 76.3398 13.0662 76.4175 13.1617 76.4175C13.2573 76.4175 13.3355 76.7668 13.3355 77.1938C13.3355 77.6208 13.4137 77.9702 13.5093 77.9702C13.6049 77.9702 13.6831 77.6208 13.6831 77.1938C13.6831 76.7668 13.7613 76.4175 13.8569 76.4175C13.9524 76.4175 14.0306 76.3398 14.0306 76.2449C14.0306 76.1501 13.796 76.0724 13.5093 76.0724C13.2226 76.0724 12.988 76.1501 12.988 76.2449ZM15.9516 76.9518C15.742 77.4355 15.6258 77.8819 15.6932 77.9438C15.7608 78.0057 15.851 77.9595 15.8936 77.8408C15.9363 77.7223 16.1928 77.6252 16.4636 77.6252C16.7343 77.6252 16.9908 77.7223 17.0336 77.8408C17.0761 77.9595 17.1601 78.012 17.2199 77.9578C17.3471 77.8422 16.6248 76.0724 16.4505 76.0724C16.3857 76.0724 16.1612 76.4682 15.9516 76.9518ZM19.1841 76.388C18.3696 77.2813 19.6773 78.5506 20.5351 77.6992C20.9473 77.2898 20.8724 76.9351 20.3736 76.9351C19.8897 76.9351 19.7624 77.277 20.2433 77.2856C20.5222 77.2906 20.5201 77.3115 20.2193 77.5377C19.7809 77.8672 19.2441 77.5831 19.2441 77.0213C19.2441 76.4896 19.8441 76.1243 20.2151 76.4301C20.4977 76.663 20.7328 76.5427 20.5545 76.2565C20.3705 75.9608 19.4971 76.0446 19.1841 76.388ZM22.7509 76.9782C22.7209 77.9297 22.7374 77.9702 23.1541 77.9702C23.3931 77.9702 23.5886 77.8926 23.5886 77.7977C23.5886 77.7028 23.4365 77.6252 23.2506 77.6252C22.9722 77.6252 22.9009 77.4802 22.8474 76.8057C22.7831 75.9951 22.782 75.9972 22.7509 76.9782ZM25.3264 77.0213C25.3264 77.5432 25.4046 77.9702 25.5001 77.9702C25.5957 77.9702 25.6739 77.5432 25.6739 77.0213C25.6739 76.4994 25.5957 76.0724 25.5001 76.0724C25.4046 76.0724 25.3264 76.4994 25.3264 77.0213ZM27.5855 77.0213C27.5855 77.5432 27.6637 77.9702 27.7593 77.9702C27.8549 77.9702 27.9352 77.6792 27.9378 77.3232L27.9425 76.6763L28.5484 77.3232C28.8816 77.6792 29.1923 77.9702 29.2387 77.9702C29.2853 77.9702 29.3233 77.5432 29.3233 77.0213C29.3233 76.4994 29.2451 76.0724 29.1495 76.0724C29.054 76.0724 28.9725 76.3636 28.9685 76.7194L28.9613 77.3664L28.3852 76.7194C28.0686 76.3636 27.7589 76.0724 27.6974 76.0724C27.6359 76.0724 27.5855 76.4994 27.5855 77.0213ZM31.2349 77.0213C31.2349 77.9605 31.2401 77.9702 31.7562 77.9702C32.043 77.9702 32.2776 77.8926 32.2776 77.7977C32.2776 77.7028 32.1212 77.6252 31.93 77.6252C31.7369 77.6252 31.5825 77.5101 31.5825 77.3664C31.5825 77.2226 31.7369 77.1076 31.93 77.1076C32.1212 77.1076 32.2776 77.0386 32.2776 76.9542C32.2776 76.8698 32.1492 76.8117 31.9922 76.8248C31.8351 76.8381 31.6723 76.7518 31.6301 76.6331C31.5847 76.5053 31.7008 76.4175 31.9156 76.4175C32.1147 76.4175 32.2776 76.3398 32.2776 76.2449C32.2776 76.1501 32.043 76.0724 31.7562 76.0724C31.2401 76.0724 31.2349 76.0821 31.2349 77.0213ZM36.4553 76.3229C36.1704 76.6637 36.1666 77.3745 36.4478 77.7109C36.7076 78.0216 37.5124 78.0525 37.8038 77.7632C38.1397 77.4297 38.0566 76.9351 37.6648 76.9351C37.4736 76.9351 37.3172 77.0127 37.3172 77.1076C37.3172 77.2025 37.3954 77.2801 37.491 77.2801C37.7595 77.2801 37.6962 77.5762 37.4041 77.6876C37.0392 77.8265 36.653 77.6486 36.5378 77.2884C36.3201 76.6071 36.9431 76.1095 37.5746 76.4604C37.8074 76.5898 37.8625 76.5741 37.8031 76.3947C37.6894 76.0517 36.7248 76.0003 36.4553 76.3229ZM40.1324 76.2794C40.0177 76.3933 39.9239 76.7272 39.9239 77.0213C39.9239 77.6764 40.1955 77.9702 40.8006 77.9702C41.3324 77.9702 41.8355 77.4944 41.8355 76.9913C41.8355 76.2648 40.6475 75.7681 40.1324 76.2794ZM43.7198 77.0215C43.661 77.9562 43.6675 77.9707 44.1381 77.9704C44.4008 77.9704 44.616 77.8926 44.616 77.7977C44.616 77.7028 44.4596 77.6252 44.2684 77.6252C44.0753 77.6252 43.9209 77.5101 43.9209 77.3664C43.9209 77.2226 44.0753 77.1076 44.2684 77.1076C44.4596 77.1076 44.616 77.0386 44.616 76.9542C44.616 76.8698 44.4875 76.8117 44.3306 76.8248C44.1735 76.8381 44.0107 76.7518 43.9685 76.6331C43.9231 76.5053 44.0392 76.4175 44.254 76.4175C44.4531 76.4175 44.616 76.3398 44.616 76.2449C44.616 76.1501 44.4278 76.0724 44.1977 76.0724C43.8136 76.0724 43.7744 76.1502 43.7198 77.0215ZM46.6435 76.1875C46.3894 76.4396 46.551 76.8904 46.962 77.0762C47.201 77.1843 47.3965 77.3438 47.3965 77.4305C47.3965 77.6924 46.9323 77.7846 46.7008 77.5686C46.5329 77.4119 46.502 77.4247 46.5637 77.6252C46.6678 77.9637 47.1725 78.0537 47.4917 77.7908C47.8709 77.4783 47.7965 77.124 47.305 76.9016C46.831 76.6871 46.8155 76.2988 47.2842 76.3819C47.4415 76.4097 47.5702 76.3516 47.5702 76.2525C47.5702 76.055 46.8292 76.0031 46.6435 76.1875ZM51.5896 77.0213C51.6198 77.94 51.9147 78.4095 51.9147 77.5389C51.9147 77.1938 52.0016 77.1076 52.3492 77.1076C52.6968 77.1076 52.7836 77.1938 52.7836 77.5389C52.7836 77.7761 52.8618 77.9702 52.9574 77.9702C53.053 77.9702 53.1312 77.5432 53.1312 77.0213C53.1312 76.0921 52.862 75.6937 52.7524 76.4606C52.7159 76.7154 52.5774 76.8488 52.3492 76.8488C52.121 76.8488 51.9825 76.7154 51.946 76.4606C51.8334 75.6725 51.5594 76.1035 51.5896 77.0213ZM55.0428 77.0213C55.0428 77.9605 55.048 77.9702 55.5641 77.9702C55.8509 77.9702 56.0855 77.8926 56.0855 77.7977C56.0855 77.7028 55.9291 77.6252 55.7379 77.6252C55.251 77.6252 55.2934 77.1103 55.7814 77.0967L56.1724 77.0857L55.7814 76.9297C55.2967 76.7363 55.2697 76.4175 55.7379 76.4175C55.9291 76.4175 56.0855 76.3398 56.0855 76.2449C56.0855 76.1501 55.8509 76.0724 55.5641 76.0724C55.048 76.0724 55.0428 76.0821 55.0428 77.0213ZM57.9971 77.0213C57.9971 77.605 58.0718 77.9702 58.1912 77.9702C58.2996 77.9702 58.3451 77.818 58.2942 77.6252C58.2443 77.4354 58.2555 77.2801 58.3191 77.2801C58.3827 77.2801 58.5325 77.4354 58.6519 77.6252C58.7712 77.8149 58.9554 77.9702 59.0611 77.9702C59.1824 77.9702 59.1584 77.8261 58.9959 77.5799C58.7775 77.2489 58.7747 77.1559 58.9775 76.9678C59.3244 76.6461 58.9707 76.0724 58.4254 76.0724C58.0221 76.0724 57.9971 76.1278 57.9971 77.0213ZM61.1251 77.0213C61.1251 77.9184 61.1487 77.9702 61.5595 77.9702C61.7985 77.9702 61.994 77.8926 61.994 77.7977C61.994 77.7028 61.8376 77.6252 61.6464 77.6252C61.4534 77.6252 61.2989 77.5101 61.2989 77.3664C61.2989 77.2226 61.4534 77.1076 61.6464 77.1076C61.8376 77.1076 61.994 77.0386 61.994 76.9542C61.994 76.8698 61.8656 76.8117 61.7086 76.8248C61.5515 76.8381 61.3887 76.7518 61.3465 76.6331C61.3011 76.5053 61.4172 76.4175 61.632 76.4175C61.8312 76.4175 61.994 76.3398 61.994 76.2449C61.994 76.1501 61.7985 76.0724 61.5595 76.0724C61.1487 76.0724 61.1251 76.1242 61.1251 77.0213ZM41.4879 77.0213C41.4879 77.6264 40.8707 77.921 40.4308 77.526C39.9976 77.1366 40.0096 76.8433 40.4722 76.5217C40.9586 76.1835 41.4879 76.4439 41.4879 77.0213ZM58.7182 76.6763C58.7182 76.7665 58.6341 76.8679 58.5314 76.9019C58.4287 76.9359 58.3446 76.8345 58.3446 76.6763C58.3446 76.5181 58.4287 76.4166 58.5314 76.4506C58.6341 76.4846 58.7182 76.586 58.7182 76.6763ZM16.6374 77.0213C16.6374 77.1637 16.5225 77.2801 16.3821 77.2801C16.2267 77.2801 16.1661 77.179 16.2269 77.0213C16.282 76.879 16.3968 76.7625 16.4822 76.7625C16.5675 76.7625 16.6374 76.879 16.6374 77.0213Z" fill="#348D6D"/>
</g>
</svg>
